<svg xmlns="http://www.w3.org/2000/svg" width="50" height="50" viewBox="0 0 50 50"><title>Ali Website Assets</title><polygon points="4.55 45.76 4.6 8.72 35.47 8.78 35.42 9.94 5.76 9.89 5.71 44.59 35.47 44.64 35.43 45.76 4.55 45.76" style="fill:#323357"/><polygon points="4.55 9.89 4.6 3.83 35.47 3.88 35.42 5.04 5.76 4.99 5.71 8.72 35.47 8.78 35.43 9.89 4.55 9.89" style="fill:#323357"/><polygon points="13.12 7.44 13.17 6.28 14.33 6.32 14.29 7.44 13.12 7.44" style="fill:#323357"/><polygon points="10.3 7.44 10.35 6.28 11.51 6.32 11.46 7.44 10.3 7.44" style="fill:#323357"/><polygon points="7.48 7.44 7.53 6.28 8.69 6.32 8.64 7.44 7.48 7.44" style="fill:#323357"/><polygon points="7.48 42.83 7.53 11.65 35.47 11.7 35.42 12.87 8.69 12.82 8.64 41.66 35.47 41.72 35.43 42.83 7.48 42.83" style="fill:#323357"/><polygon points="17.7 16.84 17.75 15.68 31.91 15.73 31.87 16.84 17.7 16.84" style="fill:#323357"/><polygon points="17.7 19.98 17.75 18.82 24.71 18.87 24.66 19.98 17.7 19.98" style="fill:#323357"/><polygon points="11.01 17.92 11.86 17.13 13.13 18.47 15.57 16.1 16.36 16.96 13.17 20.08 11.01 17.92" style="fill:#323357"/><polygon points="17.7 23.12 17.75 21.95 31.91 22 31.87 23.12 17.7 23.12" style="fill:#323357"/><polygon points="17.7 26.25 17.75 25.09 24.71 25.14 24.66 26.25 17.7 26.25" style="fill:#323357"/><polygon points="11.01 24.19 11.86 23.4 13.13 24.74 15.57 22.37 16.36 23.23 13.17 26.35 11.01 24.19" style="fill:#323357"/><polygon points="17.7 29.39 17.75 28.23 31.91 28.28 31.87 29.39 17.7 29.39" style="fill:#323357"/><polygon points="17.7 32.52 17.75 31.36 24.71 31.41 24.66 32.52 17.7 32.52" style="fill:#323357"/><path d="M11.51,32.53l.05-4.3,4.3.05,0,4.25Zm1.16-1.17,2,.05,0-2-2-.05Z" style="fill:#323357"/><polygon points="17.7 35.66 17.75 34.5 31.91 34.55 31.87 35.66 17.7 35.66" style="fill:#323357"/><polygon points="17.7 38.8 17.75 37.63 24.71 37.68 24.66 38.8 17.7 38.8" style="fill:#323357"/><path d="M11.51,38.8l.05-4.3,4.3,0,0,4.25Zm1.16-1.17,2,0,0-2-2-.05Z" style="fill:#323357"/><rect x="41.42" y="9.43" width="1.21" height="27.11" style="fill:#ff7149"/><polygon points="38.58 39.6 38.59 9.43 39.81 9.43 39.81 39.27 42.02 43.18 44.23 39.33 44.24 9.43 45.45 9.43 45.45 39.65 42.02 45.62 38.58 39.6" style="fill:#ff7149"/><polygon points="42.02 37.5 39.7 39.82 38.84 38.96 42.02 35.78 45.2 38.96 44.35 39.82 42.02 37.5" style="fill:#ff7149"/><path d="M38.59,9.94V5.84a2,2,0,0,1,.6-1.42,2,2,0,0,1,1.42-.59h2.82a2,2,0,0,1,1.43.59,2,2,0,0,1,.59,1.42v4.1Zm2-4.9a.79.79,0,0,0-.8.8V8.72h4.43V5.84A.82.82,0,0,0,44,5.27.79.79,0,0,0,43.43,5Z" style="fill:#ff7149"/></svg>